<svg width="392" height="460" viewBox="0 0 392 460" fill="none" xmlns="http://www.w3.org/2000/svg">
<path d="M238.201 61.5446C238.201 54.3433 236.782 47.2126 234.027 40.5595C231.271 33.9065 227.232 27.8613 222.139 22.7693C217.047 17.6772 211.002 13.638 204.349 10.8822C197.696 8.1264 190.565 6.70801 183.364 6.70801H164.275C149.731 6.70801 135.783 12.4854 125.499 22.7693C115.215 33.0531 109.438 47.001 109.438 61.5446" stroke="#263238" stroke-width="3" stroke-linecap="round" stroke-linejoin="round"/>
<path d="M238.201 102.156V61.5446" stroke="#263238" stroke-width="6" stroke-linecap="round" stroke-linejoin="round"/>
<path d="M109.438 61.5446V102.156" stroke="#263238" stroke-width="6" stroke-linecap="round" stroke-linejoin="round"/>
<path d="M148.821 163.087C148.821 163.087 152.245 187.002 151.557 193.15C150.87 199.297 149.508 205.444 132.428 198.609C115.348 191.775 84.611 204.083 64.7942 227.984C44.9774 251.886 7.41943 331.827 7.41943 341.385C7.41943 350.944 14.9284 363.859 28.5714 365.975C42.2145 368.09 74.3391 329.091 74.3391 329.091C74.3391 329.091 87.9953 406.282 87.9953 412.377C87.9953 418.471 81.8745 458.832 81.8745 458.832H275.204L267.682 408.966L281.351 298.976C281.351 298.976 338.052 376.167 350.346 379.618C362.641 383.068 381.77 376.881 386.556 362.537C391.341 348.194 383.819 333.163 374.248 322.23C364.677 311.297 304.579 214.976 293.606 206.105C282.633 197.235 251.937 196.534 241.004 199.27C230.071 202.007 211.629 206.105 206.843 203.369C202.058 200.632 202.071 174.681 206.843 163.061C206.883 163.087 165.213 174.02 148.821 163.087Z" fill="white" stroke="#263238" stroke-linecap="round" stroke-linejoin="round"/>
<path d="M122.116 371.091C124.32 371.941 126.565 372.678 128.845 373.299" stroke="#263238" stroke-linecap="round" stroke-linejoin="round"/>
<path d="M86.8584 327.267C86.8584 327.267 89.899 353.812 114.911 367.72" stroke="#263238" stroke-linecap="round" stroke-linejoin="round"/>
<path d="M164.658 249.52L177.957 268.953" stroke="#263238" stroke-linecap="round" stroke-linejoin="round"/>
<path d="M296.17 268.094L299.687 260.77" stroke="#263238" stroke-linecap="round" stroke-linejoin="round"/>
<path d="M290.472 258.721L281.351 299.029L292.561 275.642" stroke="#263238" stroke-linecap="round" stroke-linejoin="round"/>
<path d="M331.428 331.352C331.428 331.352 345.865 322.098 360.076 322.098" stroke="#263238" stroke-linecap="round" stroke-linejoin="round"/>
<path d="M302.053 359.074C311.208 354.125 319.956 348.457 328.216 342.126C340.08 333.019 354.981 328.8 369.859 330.334C383.488 331.801 390.865 348.749 391.222 365.71C391.579 382.672 382.378 392.97 365.8 395.548C349.222 398.126 329.683 394.451 317.534 391.503C311.103 389.87 304.578 388.638 297.995 387.814C297.995 387.814 282.157 363.489 302.053 359.074Z" fill="white" stroke="#263238" stroke-linecap="round" stroke-linejoin="round"/>
<path d="M391.223 365.71C390.866 348.749 383.489 331.801 369.859 330.334C354.981 328.8 340.081 333.019 328.216 342.126L326.365 343.54C342.229 344.082 374.301 350.56 369.277 394.86C383.661 391.41 391.566 381.429 391.223 365.71Z" fill="white" stroke="#263238" stroke-linecap="round" stroke-linejoin="round"/>
<path d="M148.82 163.087C148.82 163.087 152.244 187.002 151.557 193.15C151.041 197.763 150.142 202.404 142.527 201.505C153.421 219.312 185.056 261.114 214.576 204.149C211.139 204.36 208.363 204.149 206.882 203.329C202.11 200.593 202.11 174.642 206.882 163.021C206.882 163.087 165.213 174.02 148.82 163.087Z" fill="white" stroke="#263238" stroke-linecap="round" stroke-linejoin="round"/>
<path d="M148.82 163.087C148.82 163.087 149.706 169.301 150.486 176.202C158.412 180.4 167.172 182.784 176.132 183.182C186.033 183.34 195.754 180.526 204.04 175.104C204.481 170.996 205.436 166.958 206.882 163.087C206.882 163.087 165.213 174.02 148.82 163.087Z" fill="#263238" stroke="#263238" stroke-linecap="round" stroke-linejoin="round"/>
<path d="M111.275 80.4095H107.507C102.878 80.4095 99.126 84.162 99.126 88.791V120.863C99.126 125.492 102.878 129.244 107.507 129.244H111.275C115.904 129.244 119.657 125.492 119.657 120.863V88.791C119.657 84.162 115.904 80.4095 111.275 80.4095Z" fill="#263238" stroke="#263238" stroke-linecap="round" stroke-linejoin="round"/>
<path d="M111.487 80.4492C111.183 80.4492 110.866 80.4492 110.549 80.4492H108.222C107.905 80.4492 107.6 80.4492 107.283 80.4492V129.205C107.6 129.205 107.905 129.205 108.222 129.205H110.549C110.866 129.205 111.183 129.205 111.487 129.205V80.4492Z" fill="white" stroke="#263238" stroke-linecap="round" stroke-linejoin="round"/>
<path d="M240.462 80.4095H236.694C232.065 80.4095 228.312 84.162 228.312 88.791V120.863C228.312 125.492 232.065 129.244 236.694 129.244H240.462C245.091 129.244 248.843 125.492 248.843 120.863V88.791C248.843 84.162 245.091 80.4095 240.462 80.4095Z" fill="#263238" stroke="#263238" stroke-linecap="round" stroke-linejoin="round"/>
<path d="M240.686 80.4492C240.382 80.4492 240.065 80.4492 239.747 80.4492H237.421C237.103 80.4492 236.786 80.4492 236.482 80.4492V129.205C236.786 129.205 237.103 129.205 237.421 129.205H239.747C240.065 129.205 240.382 129.205 240.686 129.205V80.4492Z" fill="white" stroke="#263238" stroke-linecap="round" stroke-linejoin="round"/>
<path d="M77.1151 118.972C75.515 119.117 73.9765 119.66 72.6397 120.551C71.3029 121.443 70.2101 122.654 69.4607 124.075C66.3936 129.178 56.7034 148.056 57.7213 153.675C58.7393 159.293 101.096 199.085 101.096 201.637C101.096 204.188 67.4248 250.115 44.964 270.526C22.5032 290.938 4.65623 313.888 1.58919 332.264C-1.47785 350.64 9.24356 365.935 20.4806 369.002C31.7176 372.069 45.4796 365.433 61.2907 345.523C77.1018 325.614 120.49 238.878 127.126 209.357C127.126 209.357 128.647 196.137 122.526 188.43C116.405 180.723 101.096 162.916 101.096 162.916C101.096 162.916 104.163 127.711 101.612 125.159C99.0603 122.608 96.5088 128.226 96.5088 128.226C96.5088 128.226 94.1424 116.421 90.8903 116.989C87.3341 117.624 86.303 122.092 86.303 122.092C86.303 122.092 83.7515 111.82 77.1151 118.972Z" fill="white" stroke="#263238" stroke-linecap="round" stroke-linejoin="round"/>
<path d="M96.5091 128.16C96.5091 128.16 89.1852 157.469 89.8991 162.413" stroke="#263238" stroke-linecap="round" stroke-linejoin="round"/>
<path d="M86.3029 122.026C86.3029 122.026 78.5427 150.528 77.5512 154.494C77.2212 155.791 77.1611 157.143 77.3749 158.464C77.5887 159.785 78.0717 161.048 78.7939 162.175" stroke="#263238" stroke-linecap="round" stroke-linejoin="round"/>
<path d="M77.1147 118.972C77.1147 118.972 66.1553 149.537 66.1553 152.763C66.1553 155.988 68.6406 159.941 68.6406 159.941" stroke="#263238" stroke-linecap="round" stroke-linejoin="round"/>
<path d="M67.3587 246.691C60.383 255.069 52.9043 263.016 44.964 270.487C22.49 290.885 4.65623 313.848 1.58919 332.224C-1.47785 350.6 9.24356 365.895 20.4806 368.962C31.7176 372.029 45.4796 365.393 61.2907 345.484C70.3993 334.035 88.6164 300.456 103.714 268.371C80.7109 262.264 71.2189 252.745 67.3587 246.691Z" fill="white" stroke="#263238" stroke-linecap="round" stroke-linejoin="round"/>
<path d="M119.208 55.1064C119.208 55.1064 118.322 126.137 120.992 139.463C123.663 152.789 147.631 175.422 175.194 176.307C202.758 177.193 224.479 151.89 227.136 138.564C229.793 125.239 227.136 71.9751 226.7 50.6645C226.263 29.3539 195.619 10.2642 164.566 15.1424C133.512 20.0205 117.436 38.2245 119.208 55.1064Z" fill="white" stroke="#263238" stroke-linecap="round" stroke-linejoin="round"/>
<path d="M186.696 83.9657C186.696 83.9657 188.467 96.3925 190.252 99.0497C192.037 101.707 195.13 105.276 188.93 107.934C182.73 110.591 177.825 107.484 177.825 104.377" stroke="#263238" stroke-linecap="round" stroke-linejoin="round"/>
<path d="M193.358 127.909C193.358 127.909 169.377 130.976 158.722 120.4C158.722 120.4 161.366 136.833 169.377 139.503C177.388 142.173 193.358 127.909 193.358 127.909Z" fill="white" stroke="#263238" stroke-linecap="round" stroke-linejoin="round"/>
<path d="M162.278 84.4019L164.499 91.5011" stroke="#263238" stroke-linecap="round" stroke-linejoin="round"/>
<path d="M152.509 91.0648C152.509 91.0648 158.722 95.0308 170.263 91.5011" stroke="#263238" stroke-width="2" stroke-linecap="round" stroke-linejoin="round"/>
<path d="M205.785 84.402L208.006 91.5011" stroke="#263238" stroke-linecap="round" stroke-linejoin="round"/>
<path d="M196.016 91.0648C196.016 91.0648 202.229 95.0308 213.783 91.5011" stroke="#263238" stroke-width="2" stroke-linecap="round" stroke-linejoin="round"/>
<path d="M149.402 71.9751C151.572 69.0809 154.387 66.7319 157.622 65.1142C160.857 63.4965 164.425 62.6545 168.043 62.655" stroke="#263238" stroke-width="2" stroke-linecap="round" stroke-linejoin="round"/>
<path d="M192.023 61.7561C192.023 61.7561 204.9 58.2131 213.784 68.3661" stroke="#263238" stroke-width="2" stroke-linecap="round" stroke-linejoin="round"/>
<path d="M175.433 80.74C176.561 82.6658 177.142 84.8628 177.114 87.0944C177.086 89.3261 176.45 91.5078 175.274 93.4048L175.023 93.8014C173.167 96.7821 170.583 99.2408 167.513 100.945C164.444 102.65 160.991 103.545 157.48 103.544H154.704C151.882 103.544 149.11 102.802 146.664 101.394C144.219 99.986 142.186 97.9603 140.77 95.5199V95.5199C139.731 93.731 139.121 91.7256 138.988 89.6611C138.855 87.5966 139.202 85.5294 140.003 83.6219C140.966 81.3284 142.551 79.3495 144.578 77.9083C146.606 76.4671 148.995 75.6209 151.478 75.4652L164.116 74.672C166.38 74.5348 168.637 75.0296 170.635 76.1012C172.633 77.1727 174.294 78.7788 175.433 80.74V80.74Z" stroke="#263238" stroke-linecap="round" stroke-linejoin="round"/>
<path d="M189.974 80.74C188.846 82.6658 188.265 84.8628 188.293 87.0944C188.321 89.3261 188.957 91.5079 190.133 93.4048L190.384 93.8014C192.24 96.7821 194.824 99.2408 197.894 100.946C200.963 102.65 204.416 103.545 207.927 103.545H210.703C213.525 103.544 216.297 102.802 218.743 101.394C221.188 99.986 223.221 97.9604 224.637 95.52V95.52C225.679 93.7321 226.291 91.7264 226.424 89.6614C226.557 87.5964 226.208 85.5287 225.404 83.622V83.622C224.441 81.3284 222.856 79.3495 220.829 77.9083C218.801 76.4671 216.412 75.621 213.929 75.4652L201.304 74.672C199.039 74.5354 196.78 75.0303 194.78 76.1017C192.779 77.173 191.116 78.7788 189.974 80.74V80.74Z" stroke="#263238" stroke-linecap="round" stroke-linejoin="round"/>
<path d="M176.926 83.0667C176.926 83.0667 180.892 79.96 188.467 83.0667" stroke="#263238" stroke-linecap="round" stroke-linejoin="round"/>
<path d="M171.599 76.4171H193.359" stroke="#263238" stroke-linecap="round" stroke-linejoin="round"/>
<path d="M139.976 83.6087H119.208" stroke="#263238" stroke-linecap="round" stroke-linejoin="round"/>
<path d="M198.686 36.453C198.686 36.453 210.188 73.3897 227.651 82.9345C227.268 70.2698 226.819 58.3718 226.66 50.6645C226.21 29.3539 195.58 10.2642 164.526 15.1424C133.472 20.0205 117.463 38.2245 119.234 55.1064C119.234 55.1064 119.089 66.7004 119.102 81.4142C134.093 74.9496 173.568 56.944 198.686 36.453Z" fill="#263238"/>
<path d="M116.128 71.7107C116.128 71.7107 174.362 47.2934 205.839 16.2925" stroke="#737373" stroke-linecap="round" stroke-linejoin="round"/>
<path d="M111.421 51.9865C111.421 51.9865 172.485 37.894 207.716 0.785431" stroke="#737373" stroke-linecap="round" stroke-linejoin="round"/>
<path d="M210.056 20.5097C210.056 20.5097 210.994 44.4643 236.363 66.5417" stroke="#737373" stroke-linecap="round" stroke-linejoin="round"/>
<path d="M203.445 169.565C203.445 169.565 203.445 185.667 191.375 211.327C179.306 236.987 178.79 262.647 186.841 281.763C194.892 300.88 216.533 308.441 239.721 299.888C262.909 291.335 265.883 253.089 263.372 229.941C260.86 206.793 238.254 179.626 233.177 166.035C228.101 152.445 224.624 145.412 224.624 145.412C224.624 145.412 211.536 163.524 203.472 167.543L203.445 169.565Z" fill="#263238"/>
<path d="M211.932 151.56C214.841 173.519 211.928 195.858 203.485 216.338C189.392 250.154 200.193 286.324 216.639 293.833C233.084 301.342 249.041 298.539 257.026 288.201" stroke="#737373" stroke-linecap="round" stroke-linejoin="round"/>
<path d="M218.04 144.051C218.04 144.051 234.01 181.622 227.439 209.807C220.869 237.992 223.685 273.752 243.409 280.732C263.133 287.712 274.41 273.752 274.41 273.752" stroke="#737373" stroke-linecap="round" stroke-linejoin="round"/>
<path d="M237.301 168.468C237.301 168.468 250.918 220.132 250.918 246.902C250.918 273.673 267.364 269.455 271.594 256.302" stroke="#737373" stroke-linecap="round" stroke-linejoin="round"/>
<path d="M203.445 169.565C203.445 169.565 203.445 185.667 191.375 211.327C179.306 236.987 178.79 262.647 186.841 281.763C194.892 300.88 216.533 308.441 239.721 299.888C262.909 291.335 265.883 253.089 263.372 229.941C260.86 206.793 238.254 179.626 233.177 166.035C228.101 152.445 224.624 145.412 224.624 145.412C224.624 145.412 211.536 163.524 203.472 167.543L203.445 169.565Z" stroke="#263238" stroke-linecap="round" stroke-linejoin="round"/>
<path d="M265.54 311.994L179.707 308.532C175.92 308.379 172.727 311.324 172.575 315.111L167.794 433.624C167.641 437.41 170.587 440.604 174.373 440.756L260.207 444.219C263.993 444.372 267.186 441.426 267.339 437.64L272.12 319.126C272.272 315.34 269.327 312.147 265.54 311.994Z" fill="#263238" stroke="#263238" stroke-linecap="round" stroke-linejoin="round"/>
<path d="M309.272 359.933C309.272 359.933 265.328 346.264 257.833 343.963C250.337 341.663 207.16 373.907 205.442 378.507C203.723 383.108 210.042 383.121 210.042 383.121C210.042 383.121 207.398 387.722 211.364 390.022C212.615 390.864 213.943 391.586 215.33 392.177C215.33 392.177 213.03 397.359 217.631 399.091C222.231 400.823 228.577 396.209 228.577 396.209L238.941 388.726C238.941 388.726 226.488 403.969 229.145 407.155C232.807 411.518 235.147 406.838 235.147 406.838L249.464 389.877L263.848 382.962C263.848 382.962 275.362 389.877 293.791 390.445C312.22 391.013 316.265 382.962 316.265 382.962" fill="white"/>
<path d="M309.272 359.933C309.272 359.933 265.328 346.264 257.833 343.963C250.337 341.663 207.16 373.907 205.442 378.507C203.723 383.108 210.042 383.121 210.042 383.121C210.042 383.121 207.398 387.722 211.364 390.022C212.615 390.864 213.943 391.586 215.33 392.177C215.33 392.177 213.03 397.359 217.631 399.091C222.231 400.823 228.577 396.209 228.577 396.209L238.941 388.726C238.941 388.726 226.488 403.969 229.145 407.155C232.807 411.518 235.147 406.838 235.147 406.838L249.464 389.877L263.848 382.962C263.848 382.962 275.362 389.877 293.791 390.445C312.22 391.013 316.265 382.962 316.265 382.962" stroke="#263238" stroke-linecap="round" stroke-linejoin="round"/>
<path d="M215.422 392.177C215.422 392.177 231.564 381.098 235.583 377.093C239.602 373.087 252.623 364.719 256.642 364.719" stroke="#263238" stroke-linecap="round" stroke-linejoin="round"/>
<path d="M239.034 388.766C239.034 388.766 246.966 379.803 249.953 378.468C252.941 377.132 257.304 375.123 257.304 375.123" stroke="#263238" stroke-linecap="round" stroke-linejoin="round"/>
<path d="M210.042 383.121C210.042 383.121 232.517 367.257 240.211 362.59C244.811 359.783 249.615 357.321 254.581 355.227" stroke="#263238" stroke-linecap="round" stroke-linejoin="round"/>
</svg>
